<svg width="144" height="110" viewBox="0 0 144 110" fill="none" xmlns="http://www.w3.org/2000/svg">
<mask id="path-1-outside-1_5956_4271" maskUnits="userSpaceOnUse" x="0" y="0" width="144" height="110" fill="black">
<rect fill="white" width="144" height="110"/>
<path d="M26.816 102V20.08L35.776 29.04H8.896V12.4H47.552V102H26.816ZM67.469 102V88.56L102.029 55.92C104.76 53.4453 106.765 51.2267 108.045 49.264C109.325 47.3013 110.178 45.5093 110.605 43.888C111.117 42.2667 111.373 40.7733 111.373 39.408C111.373 35.824 110.136 33.0933 107.661 31.216C105.272 29.2533 101.73 28.272 97.037 28.272C93.2823 28.272 89.7837 28.9973 86.541 30.448C83.3837 31.8987 80.6957 34.16 78.477 37.232L63.373 27.504C66.7863 22.384 71.565 18.3307 77.709 15.344C83.853 12.3573 90.9357 10.864 98.957 10.864C105.613 10.864 111.416 11.9733 116.365 14.192C121.4 16.3253 125.282 19.3547 128.013 23.28C130.829 27.2053 132.237 31.8987 132.237 37.36C132.237 40.2613 131.853 43.1627 131.085 46.064C130.402 48.88 128.952 51.8667 126.733 55.024C124.6 58.1813 121.442 61.7227 117.261 65.648L88.589 92.656L84.621 85.104H135.181V102H67.469Z"/>
</mask>
<path d="M26.816 102V20.08L35.776 29.04H8.896V12.4H47.552V102H26.816ZM67.469 102V88.56L102.029 55.92C104.76 53.4453 106.765 51.2267 108.045 49.264C109.325 47.3013 110.178 45.5093 110.605 43.888C111.117 42.2667 111.373 40.7733 111.373 39.408C111.373 35.824 110.136 33.0933 107.661 31.216C105.272 29.2533 101.73 28.272 97.037 28.272C93.2823 28.272 89.7837 28.9973 86.541 30.448C83.3837 31.8987 80.6957 34.16 78.477 37.232L63.373 27.504C66.7863 22.384 71.565 18.3307 77.709 15.344C83.853 12.3573 90.9357 10.864 98.957 10.864C105.613 10.864 111.416 11.9733 116.365 14.192C121.4 16.3253 125.282 19.3547 128.013 23.28C130.829 27.2053 132.237 31.8987 132.237 37.36C132.237 40.2613 131.853 43.1627 131.085 46.064C130.402 48.88 128.952 51.8667 126.733 55.024C124.6 58.1813 121.442 61.7227 117.261 65.648L88.589 92.656L84.621 85.104H135.181V102H67.469Z" fill="#DB251A"/>
<path d="M26.816 102H18.816V110H26.816V102ZM26.816 20.08L32.4729 14.4231L18.816 0.766289V20.08H26.816ZM35.776 29.04V37.04H55.0897L41.4329 23.3831L35.776 29.04ZM8.896 29.04H0.896V37.04H8.896V29.04ZM8.896 12.4V4.39999H0.896V12.4H8.896ZM47.552 12.4H55.552V4.39999H47.552V12.4ZM47.552 102V110H55.552V102H47.552ZM34.816 102V20.08H18.816V102H34.816ZM21.1591 25.7369L30.1191 34.6968L41.4329 23.3831L32.4729 14.4231L21.1591 25.7369ZM35.776 21.04H8.896V37.04H35.776V21.04ZM16.896 29.04V12.4H0.896V29.04H16.896ZM8.896 20.4H47.552V4.39999H8.896V20.4ZM39.552 12.4V102H55.552V12.4H39.552ZM47.552 94H26.816V110H47.552V94ZM67.469 102H59.469V110H67.469V102ZM67.469 88.56L61.976 82.7439L59.469 85.1116V88.56H67.469ZM102.029 55.92L96.6568 49.9921L96.5958 50.0474L96.536 50.1039L102.029 55.92ZM108.045 49.264L114.746 53.6341V53.6341L108.045 49.264ZM110.605 43.888L102.976 41.4789L102.918 41.6642L102.868 41.8521L110.605 43.888ZM107.661 31.216L102.583 37.3978L102.703 37.496L102.826 37.5895L107.661 31.216ZM86.541 30.448L83.2741 23.1455L83.2375 23.1618L83.201 23.1786L86.541 30.448ZM78.477 37.232L74.1452 43.9577L80.5217 48.0646L84.9624 41.9159L78.477 37.232ZM63.373 27.504L56.7166 23.0664L52.2083 29.8289L59.0412 34.2297L63.373 27.504ZM77.709 15.344L74.2115 8.14905L74.2115 8.14905L77.709 15.344ZM116.365 14.192L113.093 21.4921L113.168 21.5258L113.244 21.558L116.365 14.192ZM128.013 23.28L121.446 27.8485L121.479 27.8961L121.513 27.9433L128.013 23.28ZM131.085 46.064L123.351 44.0169L123.33 44.0978L123.31 44.1792L131.085 46.064ZM126.733 55.024L120.187 50.4244L120.145 50.4844L120.104 50.5451L126.733 55.024ZM117.261 65.648L111.786 59.8154L111.776 59.8247L117.261 65.648ZM88.589 92.656L81.507 96.377L86.4066 105.702L94.0743 98.4793L88.589 92.656ZM84.621 85.104V77.104H71.3805L77.5391 88.825L84.621 85.104ZM135.181 85.104H143.181V77.104H135.181V85.104ZM135.181 102V110H143.181V102H135.181ZM75.469 102V88.56H59.469V102H75.469ZM72.962 94.3761L107.522 61.7361L96.536 50.1039L61.976 82.7439L72.962 94.3761ZM107.401 61.8479C110.385 59.1435 112.942 56.4007 114.746 53.6341L101.344 44.8939C100.588 46.0526 99.134 47.7472 96.6568 49.9921L107.401 61.8479ZM114.746 53.6341C116.323 51.2166 117.629 48.6306 118.342 45.9239L102.868 41.8521C102.727 42.388 102.327 43.3861 101.344 44.8939L114.746 53.6341ZM118.234 46.2971C118.934 44.0791 119.373 41.7624 119.373 39.408H103.373C103.373 39.7843 103.3 40.4542 102.976 41.4789L118.234 46.2971ZM119.373 39.408C119.373 33.7586 117.289 28.4783 112.496 24.8425L102.826 37.5895C103.043 37.7542 103.109 37.865 103.158 37.9738C103.224 38.1192 103.373 38.5356 103.373 39.408H119.373ZM112.739 25.0342C108.341 21.422 102.665 20.272 97.037 20.272V36.272C100.796 36.272 102.202 37.0847 102.583 37.3978L112.739 25.0342ZM97.037 20.272C92.2218 20.272 87.6025 21.209 83.2741 23.1455L89.8079 37.7505C91.9648 36.7856 94.3429 36.272 97.037 36.272V20.272ZM83.201 23.1786C78.6779 25.2567 74.9429 28.4615 71.9916 32.5481L84.9624 41.9159C86.4484 39.8584 88.0894 38.5406 89.881 37.7174L83.201 23.1786ZM82.8088 30.5063L67.7048 20.7783L59.0412 34.2297L74.1452 43.9577L82.8088 30.5063ZM70.0294 31.9416C72.569 28.1322 76.1973 24.974 81.2065 22.5389L74.2115 8.14905C66.9327 11.6873 61.0037 16.6358 56.7166 23.0664L70.0294 31.9416ZM81.2065 22.5389C86.0865 20.1667 91.9376 18.864 98.957 18.864V2.864C89.9338 2.864 81.6195 4.54792 74.2115 8.14905L81.2065 22.5389ZM98.957 18.864C104.735 18.864 109.379 19.8272 113.093 21.4921L119.637 6.89192C113.453 4.1195 106.491 2.864 98.957 2.864V18.864ZM113.244 21.558C117.093 23.1891 119.695 25.3323 121.446 27.8485L134.58 18.7115C130.869 13.377 125.706 9.46158 119.486 6.82598L113.244 21.558ZM121.513 27.9433C123.229 30.3354 124.237 33.3442 124.237 37.36H140.237C140.237 30.4531 138.429 24.0752 134.513 18.6167L121.513 27.9433ZM124.237 37.36C124.237 39.5468 123.949 41.7604 123.351 44.0169L138.819 48.1111C139.757 44.5649 140.237 40.9758 140.237 37.36H124.237ZM123.31 44.1792C122.928 45.757 122.01 47.8305 120.187 50.4244L133.279 59.6236C135.893 55.9028 137.877 52.003 138.86 47.9488L123.31 44.1792ZM120.104 50.5451C118.426 53.0295 115.728 56.1148 111.786 59.8154L122.736 71.4806C127.157 67.3306 130.774 63.3332 133.362 59.5029L120.104 50.5451ZM111.776 59.8247L83.1037 86.8327L94.0743 98.4793L122.746 71.4713L111.776 59.8247ZM95.671 88.935L91.7029 81.383L77.5391 88.825L81.507 96.377L95.671 88.935ZM84.621 93.104H135.181V77.104H84.621V93.104ZM127.181 85.104V102H143.181V85.104H127.181ZM135.181 94H67.469V110H135.181V94Z" fill="#F4F4F4" mask="url(#path-1-outside-1_5956_4271)"/>
</svg>
