<svg width="159" height="166" viewBox="0 0 159 166" fill="none" xmlns="http://www.w3.org/2000/svg">
<rect x="1.02537" y="67.869" width="43.4" height="43.4" rx="4.825" transform="rotate(-20 1.02537 67.869)" stroke="#DB251A" stroke-width="1.6"/>
<mask id="mask0_5830_5430" style="mask-type:luminance" maskUnits="userSpaceOnUse" x="7" y="59" width="44" height="44">
<path d="M7.20966 70.7527L38.9243 59.2095L50.4675 90.9241L18.7528 102.467L7.20966 70.7527Z" fill="white"/>
</mask>
<g mask="url(#mask0_5830_5430)">
<path d="M29.4522 74.0093L28.7563 75.5016C28.6002 75.8366 28.3796 76.1375 28.1071 76.3871C27.8346 76.6368 27.5156 76.8303 27.1683 76.9566L25.2998 77.6367C24.8043 77.817 24.4002 78.1871 24.1775 78.6647C24.0671 78.9014 24.0044 79.1575 23.993 79.4184C23.9815 79.6794 24.0217 79.94 24.111 80.1854C24.2003 80.4308 24.3371 80.6563 24.5136 80.8488C24.69 81.0414 24.9027 81.1973 25.1394 81.3076L28.436 82.8448C29.112 83.1599 29.8854 83.1936 30.5862 82.9385C31.287 82.6835 31.8578 82.1605 32.1731 81.4847L33.361 78.9347L35.655 81.2739C35.8692 81.4925 36.1331 81.6559 36.4243 81.7502C36.7155 81.8444 37.0251 81.8666 37.3268 81.815C37.6284 81.7633 37.913 81.6392 38.1562 81.4535C38.3994 81.2677 38.5939 81.0257 38.7231 80.7483C38.9349 80.2941 38.9576 79.7725 38.7859 79.3008L36.7321 73.6582C36.6057 73.311 36.5488 72.9422 36.5649 72.573C36.581 72.2038 36.6697 71.8414 36.8259 71.5065L38.7098 67.4642C39.1075 66.6161 39.3895 64.6773 37.3496 63.7272C35.3098 62.7771 34.0085 64.2384 33.6126 65.0873L32.1266 68.274M29.4522 74.0093L26.4588 74.0902C26.1119 74.0995 25.7684 74.0201 25.4609 73.8594C25.1534 73.6988 24.892 73.4622 24.7016 73.1722C24.5112 72.8821 24.398 72.5482 24.3729 72.2022C24.3477 71.8561 24.4114 71.5094 24.5579 71.1949C24.6807 70.932 24.8582 70.6983 25.0785 70.5095C25.2988 70.3206 25.5569 70.181 25.8355 70.0999L32.1266 68.274M29.4522 74.0093L32.1266 68.274M17.0213 89.4866C17.3594 87.5169 18.3171 85.5431 19.4446 83.8098M20.6281 99.3961C20.6008 94.9136 21.989 90.5743 23.6584 87.0694M27.415 95.4294C27.6742 93.1771 28.5251 90.4206 29.3757 88.1237" stroke="#DB251A" stroke-width="1.6" stroke-linecap="round" stroke-linejoin="round"/>
</g>
<g clip-path="url(#clip0_5830_5430)">
<path d="M134.705 37.7626C134.667 38.6789 134.514 39.5617 134.244 40.4111C133.974 41.2605 133.601 42.0777 133.123 42.8626L132.217 44.3127L120.383 43.2016L114.196 33.0519C114.548 32.4888 114.881 31.9661 115.195 31.4839C115.51 31.0017 115.848 30.5541 116.211 30.1411C116.573 29.7281 116.973 29.3385 117.411 28.9725C117.848 28.6064 118.376 28.2638 118.993 27.9446L116.96 24.6189L111.796 32.8832C112.009 33.1471 112.171 33.431 112.282 33.7349C112.392 34.0387 112.461 34.3561 112.489 34.6869C112.517 35.0177 112.487 35.338 112.398 35.6477C112.309 35.9575 112.178 36.2607 112.006 36.5576L109.19 41.0628L103.784 37.6846L106.599 33.1793C106.775 32.8977 106.987 32.6519 107.236 32.4419C107.485 32.2319 107.762 32.0594 108.069 31.9245C108.375 31.7895 108.686 31.7097 109.001 31.6851C109.317 31.6604 109.648 31.6844 109.994 31.7571L115.721 22.5917L114.482 20.5646L133.403 22.3648L143.315 38.5819L134.705 37.7626ZM110.203 35.4315C110.356 35.1874 110.399 34.9205 110.332 34.6308C110.265 34.341 110.109 34.1199 109.865 33.9674C109.621 33.8149 109.354 33.7721 109.065 33.839C108.775 33.9059 108.554 34.0614 108.401 34.3054L106.712 37.0086L108.514 38.1346L110.203 35.4315ZM118.508 23.0807L125.652 34.7684L139.289 36.0658L132.145 24.3781L118.508 23.0807ZM131.11 42.0744C131.562 41.3517 131.911 40.6366 132.157 39.9291C132.403 39.2217 132.55 38.4327 132.598 37.5622L124.394 36.7816L120.096 29.75C119.446 30.1009 118.854 30.5268 118.319 31.0278C117.784 31.5288 117.313 32.0955 116.904 32.7279L116.693 33.0658L121.649 41.1743L131.11 42.0744Z" fill="#323232"/>
</g>
<rect x="121.101" y="1.10237" width="43.4" height="43.4" rx="3.2" transform="rotate(32 121.101 1.10237)" stroke="#323232" stroke-width="1.6"/>
<rect x="93.869" y="109.025" width="43.4" height="43.4" rx="3.2" transform="rotate(20 93.869 109.025)" stroke="#323232" stroke-width="1.6"/>
<path d="M105.301 122.79C107.496 122.313 109.737 122.459 111.798 123.213C118.285 125.574 121.456 133.225 118.88 140.302C116.304 147.379 108.957 151.202 102.47 148.841C95.9826 146.48 92.8118 138.829 95.3877 131.752C96.237 129.418 97.6061 127.437 99.2913 125.917" stroke="#323232" stroke-width="1.6" stroke-linecap="round"/>
<path d="M107.158 146.297C106.289 147.329 105.428 148.083 104.623 148.52C103.818 148.956 103.087 149.065 102.47 148.841C101.853 148.617 101.363 148.062 101.028 147.212C100.691 146.359 100.517 145.226 100.514 143.879C100.511 142.529 100.678 140.992 101.008 139.351C101.357 137.642 101.834 135.958 102.435 134.317C103.048 132.634 103.776 131.011 104.577 129.543C105.379 128.075 106.24 126.789 107.11 125.757C107.979 124.725 108.84 123.971 109.645 123.534C110.449 123.099 111.181 122.989 111.798 123.213C112.414 123.437 112.904 123.992 113.24 124.842C113.576 125.695 113.751 126.828 113.754 128.175C113.757 129.525 113.59 131.062 113.259 132.703C112.931 134.343 112.445 136.055 111.832 137.737C111.22 139.42 110.491 141.042 109.689 142.511M95.3877 131.752L104.785 135.172M118.88 140.302L109.483 136.882" stroke="#323232" stroke-width="1.6" stroke-linecap="round"/>
<defs>
<clipPath id="clip0_5830_5430">
<rect x="120.846" width="45" height="45" rx="4" transform="rotate(32 120.846 0)" fill="white"/>
</clipPath>
</defs>
</svg>
