<svg width="159" height="166" viewBox="0 0 159 166" fill="none" xmlns="http://www.w3.org/2000/svg">
<rect x="-1.02537" y="0.478138" width="43.4" height="43.4" rx="4.825" transform="matrix(-0.939693 -0.34202 -0.34202 0.939693 157.183 67.069)" stroke="#DB251A" stroke-width="1.6"/>
<mask id="mask0_5830_5444" style="mask-type:luminance" maskUnits="userSpaceOnUse" x="108" y="59" width="44" height="44">
<path d="M151.799 70.7527L120.084 59.2095L108.541 90.9241L140.256 102.467L151.799 70.7527Z" fill="white"/>
</mask>
<g mask="url(#mask0_5830_5444)">
<path d="M129.556 74.0093L130.252 75.5016C130.408 75.8366 130.629 76.1375 130.901 76.3871C131.174 76.6368 131.493 76.8303 131.84 76.9566L133.709 77.6367C134.204 77.817 134.608 78.1871 134.831 78.6647C134.941 78.9014 135.004 79.1575 135.016 79.4184C135.027 79.6794 134.987 79.94 134.898 80.1854C134.808 80.4308 134.671 80.6563 134.495 80.8488C134.319 81.0414 134.106 81.1973 133.869 81.3076L130.573 82.8448C129.897 83.1599 129.123 83.1936 128.422 82.9385C127.722 82.6835 127.151 82.1605 126.836 81.4847L125.648 78.9347L123.354 81.2739C123.139 81.4925 122.875 81.6559 122.584 81.7502C122.293 81.8444 121.983 81.8666 121.682 81.815C121.38 81.7633 121.096 81.6392 120.852 81.4535C120.609 81.2677 120.415 81.0257 120.285 80.7483C120.074 80.2941 120.051 79.7725 120.223 79.3008L122.276 73.6582C122.403 73.311 122.46 72.9422 122.444 72.573C122.428 72.2038 122.339 71.8414 122.183 71.5065L120.299 67.4642C119.901 66.6161 119.619 64.6773 121.659 63.7272C123.699 62.7771 125 64.2384 125.396 65.0873L126.882 68.274M129.556 74.0093L132.55 74.0902C132.897 74.0995 133.24 74.0201 133.548 73.8594C133.855 73.6988 134.117 73.4622 134.307 73.1722C134.497 72.8821 134.611 72.5482 134.636 72.2022C134.661 71.8561 134.597 71.5094 134.451 71.1949C134.328 70.932 134.15 70.6983 133.93 70.5095C133.71 70.3206 133.452 70.181 133.173 70.0999L126.882 68.274M129.556 74.0093L126.882 68.274M141.987 89.4866C141.649 87.5169 140.691 85.5431 139.564 83.8098M138.381 99.3961C138.408 94.9136 137.02 90.5743 135.35 87.0694M131.594 95.4294C131.334 93.1771 130.483 90.4206 129.633 88.1237" stroke="#DB251A" stroke-width="1.6" stroke-linecap="round" stroke-linejoin="round"/>
</g>
<g clip-path="url(#clip0_5830_5444)">
<path d="M24.3037 37.7626C24.3412 38.6789 24.4948 39.5617 24.7646 40.4111C25.0343 41.2605 25.4079 42.0777 25.8853 42.8626L26.7914 44.3127L38.6259 43.2016L44.8125 33.0519C44.4606 32.4888 44.1274 31.9661 43.8131 31.4839C43.4987 31.0017 43.1603 30.5541 42.7978 30.1411C42.4353 29.7281 42.0353 29.3385 41.5978 28.9725C41.1602 28.6064 40.6329 28.2638 40.0158 27.9446L42.0487 24.6189L47.2128 32.8832C46.9992 33.1471 46.8373 33.431 46.727 33.7349C46.6167 34.0387 46.5475 34.3561 46.5193 34.6869C46.4911 35.0177 46.5216 35.338 46.6107 35.6477C46.6998 35.9575 46.8306 36.2607 47.003 36.5576L49.8182 41.0628L55.2245 37.6846L52.4093 33.1793C52.2334 32.8977 52.0211 32.6519 51.7724 32.4419C51.5237 32.2319 51.2462 32.0594 50.9401 31.9245C50.6339 31.7895 50.323 31.7097 50.0074 31.6851C49.6918 31.6604 49.361 31.6844 49.0149 31.7571L43.2877 22.5917L44.5268 20.5646L25.6057 22.3648L15.6932 38.5819L24.3037 37.7626ZM48.8051 35.4315C48.6526 35.1874 48.6098 34.9205 48.6767 34.6308C48.7436 34.341 48.8991 34.1199 49.1431 33.9674C49.3872 33.8149 49.6541 33.7721 49.9439 33.839C50.2336 33.9059 50.4547 34.0614 50.6072 34.3054L52.2964 37.0086L50.4943 38.1346L48.8051 35.4315ZM40.5002 23.0807L33.3562 34.7684L19.7197 36.0658L26.8637 24.3781L40.5002 23.0807ZM27.8985 42.0744C27.4469 41.3517 27.098 40.6366 26.8517 39.9291C26.6054 39.2217 26.4582 38.4327 26.4102 37.5622L34.6143 36.7816L38.9123 29.75C39.5622 30.1009 40.1546 30.5268 40.6895 31.0278C41.2244 31.5288 41.696 32.0955 42.1042 32.7279L42.3154 33.0658L37.3591 41.1743L27.8985 42.0744Z" fill="#323232"/>
</g>
<rect x="-0.254503" y="1.10237" width="43.4" height="43.4" rx="3.2" transform="matrix(-0.848048 0.529919 0.529919 0.848048 37.1076 0.302374)" stroke="#323232" stroke-width="1.6"/>
<rect x="-0.478138" y="1.02537" width="43.4" height="43.4" rx="3.2" transform="matrix(-0.939693 0.34202 0.34202 0.939693 64.3395 108.225)" stroke="#323232" stroke-width="1.6"/>
<path d="M53.7079 122.79C51.513 122.313 49.2715 122.459 47.2108 123.213C40.7234 125.574 37.5526 133.225 40.1285 140.302C42.7044 147.379 50.0512 151.202 56.5386 148.841C63.026 146.48 66.1967 138.829 63.6208 131.752C62.7715 129.418 61.4024 127.437 59.7172 125.917" stroke="#323232" stroke-width="1.6" stroke-linecap="round"/>
<path d="M51.8507 146.297C52.7198 147.329 53.581 148.083 54.3853 148.52C55.1903 148.956 55.9219 149.065 56.5386 148.841C57.1553 148.617 57.6453 148.062 57.9808 147.212C58.3171 146.359 58.4914 145.226 58.4943 143.879C58.498 142.529 58.331 140.992 58.0009 139.351C57.6517 137.642 57.1742 135.958 56.5731 134.317C55.9608 132.634 55.233 131.011 54.4312 129.543C53.6293 128.075 52.7689 126.789 51.8986 125.757C51.0296 124.725 50.1683 123.971 49.364 123.534C48.5595 123.099 47.8274 122.989 47.2108 123.213C46.5941 123.437 46.1041 123.992 45.7685 124.842C45.4323 125.695 45.258 126.828 45.255 128.175C45.2513 129.525 45.4183 131.062 45.7496 132.703C46.078 134.343 46.5638 136.055 47.1762 137.737C47.7886 139.42 48.5175 141.042 49.3193 142.511M63.6208 131.752L54.2239 135.172M40.1285 140.302L49.5254 136.882" stroke="#323232" stroke-width="1.6" stroke-linecap="round"/>
<defs>
<clipPath id="clip0_5830_5444">
<rect width="45" height="45" rx="4" transform="matrix(-0.848048 0.529919 0.529919 0.848048 38.1621 0)" fill="white"/>
</clipPath>
</defs>
</svg>
